<?xml version="1.0" standalone="no"?>
<!DOCTYPE svg PUBLIC "-//W3C//DTD SVG 20010904//EN"
 "http://www.w3.org/TR/2001/REC-SVG-20010904/DTD/svg10.dtd">
<svg version="1.0" xmlns="http://www.w3.org/2000/svg"
 width="1024.000000pt" height="1024.000000pt" viewBox="0 0 1024.000000 1024.000000"
 preserveAspectRatio="xMidYMid meet">
<metadata>
Created by potrace 1.11, written by Peter Selinger 2001-2013
</metadata>
<g transform="translate(0.000000,1024.000000) scale(0.100000,-0.100000)"
fill="#000000" stroke="none">
<path d="M1979 7763 c-15 -51 -20 -173 -8 -220 30 -114 89 -225 186 -351 66
-85 202 -226 287 -297 26 -22 61 -52 78 -66 16 -14 24 -26 17 -26 -27 -1 -195
-14 -224 -18 -16 -3 -50 -7 -75 -9 -69 -8 -116 -15 -235 -37 -477 -88 -872
-253 -1176 -490 -85 -67 -239 -222 -239 -241 0 -5 12 -7 28 -4 15 3 75 14 133
25 59 12 151 32 205 47 99 25 224 78 224 94 0 4 20 16 45 26 38 14 66 16 163
11 64 -3 130 -9 147 -12 208 -43 325 -75 413 -117 34 -16 62 -33 62 -38 0 -30
-221 -95 -460 -134 -19 -3 -46 -8 -59 -11 -12 -2 -42 -7 -65 -9 -22 -3 -52 -8
-66 -11 -13 -2 -42 -7 -65 -11 -22 -3 -41 -7 -43 -9 -2 -2 30 -8 70 -15 40 -7
82 -14 93 -16 11 -2 36 -7 55 -10 19 -4 44 -8 55 -10 11 -2 72 -13 135 -24
135 -23 161 -28 209 -39 l36 -8 -45 -10 c-519 -125 -973 -322 -1254 -543 -187
-148 -316 -307 -376 -464 -8 -23 -8 -27 2 -19 26 21 197 103 276 132 92 34
231 73 347 96 82 17 95 19 180 30 28 3 64 8 80 10 187 25 708 25 836 0 12 -3
44 -7 71 -10 26 -3 58 -10 70 -15 l23 -9 -22 0 c-61 -2 -315 -120 -486 -225
-311 -191 -387 -239 -385 -241 2 -2 75 -6 163 -10 270 -11 479 -24 513 -30 9
-2 21 -4 26 -4 20 -2 -2 -11 -40 -17 -118 -18 -255 -188 -425 -526 -133 -266
-252 -608 -212 -608 13 0 43 34 83 94 56 83 162 180 258 234 126 71 288 135
427 167 17 4 38 9 48 11 94 22 197 39 297 49 53 6 62 5 54 -6 -6 -8 -44 -57
-86 -109 -231 -294 -414 -556 -424 -609 -6 -29 -4 -31 20 -31 93 0 523 129
1124 338 61 21 112 35 112 31 0 -4 -4 -11 -10 -14 -5 -3 -52 -75 -105 -160
-148 -238 -201 -355 -161 -355 31 0 101 49 191 134 140 131 376 245 565 272
68 10 238 11 305 1 47 -6 117 -24 104 -26 -3 -1 -30 -5 -60 -11 -30 -5 -67
-12 -84 -15 -16 -2 -45 -9 -63 -14 -18 -5 -36 -10 -40 -11 -52 -6 -169 -48
-207 -74 -37 -25 -45 -35 -45 -61 0 -48 152 -128 403 -210 l163 -53 359 4 360
4 -105 -45 c-58 -25 -127 -56 -155 -69 -27 -12 -107 -47 -177 -77 -71 -29
-128 -58 -128 -64 0 -29 71 -72 135 -82 17 -2 41 -6 55 -9 30 -5 252 -5 295 0
17 3 62 7 100 11 104 10 361 46 422 60 12 3 39 7 60 10 21 3 137 25 258 50
121 26 231 48 245 51 14 3 51 11 83 19 32 8 71 17 85 20 38 7 46 9 252 60 102
25 192 48 200 50 8 1 42 10 76 19 58 15 63 15 115 -5 49 -19 142 -47 179 -54
8 -2 33 -8 55 -13 22 -6 54 -13 70 -15 17 -3 59 -10 95 -16 85 -13 134 -20
195 -26 28 -2 61 -7 75 -9 14 -3 66 -8 115 -11 50 -4 108 -8 130 -10 172 -16
523 -25 955 -25 373 1 471 2 800 14 l155 5 54 -62 c50 -56 175 -193 275 -300
21 -23 58 -64 82 -90 24 -27 48 -46 53 -42 48 29 61 184 28 330 -68 298 -294
792 -510 1115 -163 244 -418 528 -667 744 -30 26 -66 58 -80 70 -14 12 -47 40
-75 61 -27 22 -52 42 -55 45 -3 3 -23 18 -45 35 -49 36 -53 39 -90 69 -55 44
-339 231 -426 280 l-86 50 68 53 c38 30 69 58 69 62 0 5 -44 16 -97 26 -54 9
-110 20 -124 23 l-27 7 75 114 c63 97 71 113 51 108 -13 -3 -57 -15 -98 -26
-41 -11 -78 -21 -81 -21 -3 0 -6 14 -7 30 -1 46 -45 130 -93 179 -74 75 -173
128 -154 84 29 -69 36 -101 30 -144 -12 -87 -24 -89 -80 -9 -28 38 -52 70 -55
70 -3 0 -16 -22 -29 -50 -24 -50 -41 -64 -41 -34 0 54 -114 325 -201 476 -23
40 -50 89 -61 108 -67 116 -196 305 -317 464 -42 54 -85 111 -96 126 -42 58
-95 112 -96 99 -1 -8 -1 -40 -1 -71 0 -32 -1 -58 -3 -58 -2 0 -20 24 -39 53
-87 131 -365 361 -716 594 -178 118 -302 194 -308 188 -3 -2 -4 -25 -4 -50 1
-25 -1 -45 -4 -45 -3 0 -18 8 -32 19 -88 62 -303 169 -442 220 -157 58 -331
103 -495 126 -22 4 -51 8 -65 11 -36 7 -420 16 -420 10 0 -3 25 -24 56 -47 38
-29 51 -45 42 -49 -11 -6 -362 -94 -419 -105 -9 -2 -59 -12 -110 -23 -102 -22
-297 -57 -369 -67 -25 -3 -56 -8 -70 -10 -14 -2 -54 -6 -90 -10 -36 -4 -78 -9
-95 -12 -73 -11 -411 -9 -502 3 -211 28 -367 103 -439 211 -30 45 -51 117 -45
156 4 30 -8 18 -20 -20z m3386 -1458 c91 -32 197 -84 284 -142 47 -31 88 -59
91 -62 3 -4 39 -33 80 -66 41 -33 131 -116 200 -184 69 -68 159 -148 201 -176
79 -54 147 -84 158 -69 3 5 25 22 49 38 24 16 54 43 68 59 13 15 24 25 25 20
0 -4 2 -17 4 -28 3 -11 7 -50 11 -88 6 -59 4 -71 -16 -100 -51 -74 -137 -112
-233 -103 -121 12 -467 101 -677 174 -198 69 -318 92 -465 88 -80 -2 -131 -9
-186 -26 -42 -13 -84 -20 -93 -17 -15 6 -15 10 -2 34 8 16 39 52 70 81 31 30
56 57 56 61 0 5 -5 33 -10 62 -12 61 -14 184 -5 244 16 101 73 183 149 212 42
17 178 10 241 -12z"/>
</g>
</svg>
